<svg width="75" height="75" viewBox="0 0 75 75" fill="none" xmlns="http://www.w3.org/2000/svg">
<path d="M68.1936 0.0469207C68.1158 0.0406266 68.05 0 67.9687 0H34.3752C29.2065 0 25.0002 4.20628 25.0002 9.375V12.4998C25.0002 14.225 26.3998 15.6252 28.125 15.6252C29.8502 15.6252 31.2498 14.225 31.2498 12.4998V9.375C31.2498 7.65324 32.6528 6.25019 34.3752 6.25019H48.9344L47.9811 6.56891C45.4502 7.44381 43.7502 9.82819 43.7502 12.4998V59.3748H34.3752C32.6528 59.3748 31.2498 57.9718 31.2498 56.25V49.9998C31.2498 48.2752 29.8502 46.875 28.125 46.875C26.3998 46.875 25.0002 48.2752 25.0002 49.9998V56.25C25.0002 61.4187 29.2065 65.625 34.3752 65.625H43.7502V68.7498C43.7502 72.1968 46.5528 75 49.9998 75C50.6687 75 51.3033 74.9033 51.9905 74.6904L70.7657 68.4311C73.3 67.5562 75 65.1718 75 62.5002V6.25019C75 2.60639 71.8592 -0.250053 68.1936 0.0469207V0.0469207Z" fill="#1793D1"/>
<path d="M33.4591 29.0405L20.9593 16.5407C20.0655 15.6469 18.722 15.378 17.5529 15.8627C16.3874 16.3467 15.6252 17.4877 15.6252 18.75V28.125H3.12481C1.40018 28.125 0 29.5252 0 31.2498C0 32.975 1.40018 34.3752 3.12481 34.3752H15.6252V43.7502C15.6252 45.0125 16.3874 46.1529 17.5529 46.6375C18.722 47.1216 20.0655 46.8533 20.9593 45.9595L33.4591 33.4591C34.6813 32.2374 34.6813 30.2628 33.4591 29.0405Z" fill="#1793D1"/>
</svg>
